<?xml version="1.0" encoding="utf-8"?>
<!-- Generator: Adobe Illustrator 18.1.1, SVG Export Plug-In . SVG Version: 6.00 Build 0)  -->
<svg version="1.1" id="Livello_1" xmlns="http://www.w3.org/2000/svg" xmlns:xlink="http://www.w3.org/1999/xlink" x="0px" y="0px"
	 viewBox="148.7 5.6 544.5 584" enable-background="new 148.7 5.6 544.5 584" xml:space="preserve">
<g>
	<path fill="#009CEE" d="M557,589.6H288.2c-27.2,0-49.3-22.1-49.3-49.3V271.5c0-27.2,22.1-49.3,49.3-49.3H557
		c27.2,0,49.3,22.1,49.3,49.3v268.8C606.3,567.6,584.2,589.6,557,589.6z"/>
	<g>
		<path fill="#00445C" d="M555.6,236.8c-0.6,0-0.9,0-1.2,0c-1.2-1.5-2.6-1.7-3.8-2.3c-10.2-3.8-20.7-7.6-30.9-11.4
			c-14.9-5.5-30-7.6-45.5-7c12.2-30,24.2-59.8,42.6-86.9c9.9-14.9,20.4-28.6,32.6-41.7c12.8-14,26.2-27.1,42.3-37.9
			c18.1-12.2,36.4-23,56.3-32.4c9.6-4.4,19.2-8.2,29.1-10.8c8.5-2.3,10.8,0,12.5,8.7c2.9,16.3,3.5,32.4,3.5,49
			c-0.3,16.6-5.2,32.1-11.7,46.9c-13.1,31.8-35.6,56.6-60.6,79.6C600.5,209.1,579.2,224.2,555.6,236.8z"/>
		<path fill="#00445C" d="M440.8,208.8c-2,8.2-3.5,9-12.2,10.2c-15.4,1.5-30-2.6-44.6-5.8c-13.4-2.9-26.8-6.1-40.2-9.3
			c-21-4.7-41.4-10.5-61.2-17.8c-23.3-8.5-45.5-18.7-67-30.9c-17.5-9.9-33.2-22.4-48.4-35.6c-4.7-4.1-9-8.2-14.6-10.8
			c-2-1.2-4.1-2-3.8-4.7c0.3-3.2,2.6-4.4,5.2-5c9.3-1.2,18.7-3.5,28-2.9c17.8,0.9,35.9,1.5,53.6,4.7c17.2,2.9,34.4,6.4,51.3,11.7
			c12.5,3.8,25.1,8.2,37.6,12.5c23,8.2,45.2,18.1,65.9,31.2c11.4,7.3,23,14.6,33.2,23c7.9,6.1,14,13.7,17.2,23.3
			C440.8,205,440.8,207,440.8,208.8z"/>
		<path fill="#001313" d="M474,216.1c15.4-0.6,30.9,1.5,45.5,7c10.2,3.8,20.7,7.3,30.9,11.4c1.5,0.6,3.2,0.9,3.8,2.3
			c-18.7,11.4-39.1,18.1-60,23.9c-9.9,2.6-19.5,5-30,6.4c-4.7,0.9-6.1-1.2-6.7-5.2c-0.3-2.6-0.3-5.5,1.2-8.2
			c5-12.5,9.6-24.8,14.6-37C473.4,216.4,473.7,216.1,474,216.1z"/>
		<path fill="#495052" d="M440.8,208.8c0-1.7-0.3-3.8-0.3-5.8c0.3-8.5-0.9-17.2-1.7-25.9c-0.6-4.4-4.1-8.2-4.7-12.5
			c-0.3-3.5,0-6.4,4.1-7.3c4.4-0.9,6.1,1.5,6.4,5.8c1.2,17.2,6.1,33.5,7.9,50.7c0.3,1.7,0.3,3.5,0.6,5.2c-0.3,0.6-0.6,0.9-0.9,1.2
			c-3.5-0.3-6.7,0.6-9.9,2c-0.3,0-0.6,0-0.6-0.3C441.4,217.8,441.1,213.4,440.8,208.8z"/>
		<path fill="#2A2535" d="M442.5,222.5c3.2-1.5,6.1-2.3,9.9-2c2.3,15.7,0.9,31.8,0.6,47.5c0,2.3-0.9,3.8-3.5,3.8
			c-3.5,0-3.5-2.6-3.8-5c-0.9-9.9-1.5-19.5-1.7-29.1C443.4,232.7,443.4,227.4,442.5,222.5z"/>
	</g>
	<path fill="#FFFFFF" d="M552.7,371.5c-14.7,82.7-96.7,152.8-121.4,168.8c-24.7,16-47.2-6.4-55.4-23.4
		c-9.3-19.3-37.4-124.1-44.7-132.8c-7.3-8.7-29.4,8.7-29.4,8.7l-10.7-14c0,0,44.7-53.4,78.7-60.1c36.1-7.1,36,55.4,44.7,90.1
		c8.4,33.5,14,52.7,21.4,52.7c7.3,0,21.4-18.7,36.7-47.4c15.4-28.7-0.7-54.1-30.7-36C453.9,306.1,567.4,288.8,552.7,371.5z"/>
</g>
</svg>
